# xmcd CD database file
#
# Track frame offsets:
#	150
#	30837
#	34265
#	70315
#	81621
#	99842
#	109855
#	127104
#	151512
#	171463
#	173286
#	201606
#	212288
#
# Disc length: 3134 seconds
#
# Revision: 0
# Processed by: cddbd v1.5.2PL0 Copyright (c) Steve Scherf et al.
# Submitted via: CDex 1.51
#
DISCID=a70c3c0d
DTITLE=Salvatore Bonafede - Journey To Donnafugata
DYEAR=2005
DGENRE=Jazz
TTITLE0=Viaggio A Donnafugata
TTITLE1=Gran Valzer
TTITLE2=Reputation And Character
TTITLE3=Mazurka
TTITLE4=Polka
TTITLE5=Controdanza/Taceas, Me Spectes
TTITLE6=Galop
TTITLE7=Quadriglia
TTITLE8=Taceas, Me Spectes
TTITLE9=Gran Valzer
TTITLE10=Angelica
TTITLE11=Valzer Del Commiato
TTITLE12=Viaggio A Donnafugata
EXTD=YEAR: 2005
EXTT0=
EXTT1=
EXTT2=
EXTT3=
EXTT4=
EXTT5=
EXTT6=
EXTT7=
EXTT8=
EXTT9=
EXTT10=
EXTT11=
EXTT12=
PLAYORDER=
